<svg xmlns="http://www.w3.org/2000/svg" viewBox="0 0 750 500"><g id="freepik--background-simple--inject-90"><path d="M692.6,54.8c-12.35,1.85-27.43,7-34.13,8.25q-52.9,9.83-106,17.37C494.91,88.56,437.09,95,379.34,96.23,293.39,98.13,209.07,78.38,124.18,68c-20.19-2.46-80.87-17.47-91,15.87C20,127.12,20.54,179.06,19.07,224.26c-1.56,48.21-3.07,96.37-3.52,144.52-.16,16.49,1.09,33.43,7.19,47.85,7.64,18.05,21.83,25.8,37.68,28.33,28.68,4.56,57.85,3.12,86.81,2,39.16-1.54,78.31-5.18,117.41-9.05,67.69-6.7,136.52-18,204.28-15.55,47.57,1.74,94.36,11.15,141,20.58,18.9,3.82,37.45,9.73,56.6,11.94,15.52,1.78,39.22,3.51,52-11.06C729.23,431.57,729.66,403,731,387c2.93-34.44,3.3-69.14,3.1-103.61-.38-64.59-1.14-131.78-10.83-195.09C720,66.8,712,51.9,692.6,54.8Z" style="fill:#92DCE3"></path><path d="M692.6,54.8c-12.35,1.85-27.43,7-34.13,8.25q-52.9,9.83-106,17.37C494.91,88.56,437.09,95,379.34,96.23,293.39,98.13,209.07,78.38,124.18,68c-20.19-2.46-80.87-17.47-91,15.87C20,127.12,20.54,179.06,19.07,224.26c-1.56,48.21-3.07,96.37-3.52,144.52-.16,16.49,1.09,33.43,7.19,47.85,7.64,18.05,21.83,25.8,37.68,28.33,28.68,4.56,57.85,3.12,86.81,2,39.16-1.54,78.31-5.18,117.41-9.05,67.69-6.7,136.52-18,204.28-15.55,47.57,1.74,94.36,11.15,141,20.58,18.9,3.82,37.45,9.73,56.6,11.94,15.52,1.78,39.22,3.51,52-11.06C729.23,431.57,729.66,403,731,387c2.93-34.44,3.3-69.14,3.1-103.61-.38-64.59-1.14-131.78-10.83-195.09C720,66.8,712,51.9,692.6,54.8Z" style="fill:#fff;opacity:0.7000000000000001"></path></g><g id="freepik--Floor--inject-90"><ellipse cx="375.58" cy="451.14" rx="348.85" ry="9.67" style="opacity:0.18"></ellipse></g><g id="freepik--Plants--inject-90"><g style="opacity:0.2"><path d="M151.86,285.77c4.07-1.15,11.28-7.32,11.28-7.33s-5.51-3.51-5.88-3.69c-4.37-2.05-14-3.44-17.7.51a6.4,6.4,0,0,0,1.1,9.46C143.7,287,148.39,286.74,151.86,285.77Z"></path><path d="M171.8,305c3.48-2.09,8.47-9.36,8.87-9.94a112.74,112.74,0,0,0,13,7.74c2.61,1.35,5.28,2.63,8,3.87-1.31-.38-2.49-.72-2.66-.75-4.76-.82-14.43.38-16.94,5.17a6.39,6.39,0,0,0,3.57,8.82c3.53,1.42,8-.08,11.07-1.94s7.52-8,8.66-9.62c1,.47,2.07.95,3.11,1.41,5,2.22,10,4.42,14.8,6.72,1.7.81,3.34,1.68,5,2.53-1.16-.34-2.15-.62-2.31-.64-4.75-.83-14.42.38-16.93,5.16a6.39,6.39,0,0,0,3.56,8.82c3.54,1.43,8-.08,11.08-1.94s7.09-7.39,8.45-9.33c1.66.93,3.33,1.86,4.9,2.83,1,.69,2.12,1.28,3.14,2l3.05,2.15c1.9,1.43,3.86,2.9,5.67,4.35,1.26,1,2.45,2,3.65,2.95-1.68-.83-5-2.38-5.31-2.48-4.57-1.53-14.31-1.81-17.52,2.54a6.39,6.39,0,0,0,2.19,9.26c3.28,1.94,7.91,1.13,11.24-.24,3.67-1.51,9.5-7.65,10.22-8.42,2,1.62,3.89,3.22,5.67,4.76,3.93,3.38,7.36,6.49,10.22,9.17l2.74-2.25c-3-2.71-6.67-5.9-10.9-9.37-2-1.66-4.17-3.39-6.42-5.14a70.46,70.46,0,0,0,3.51-7.37c4,.56,11.74-1.21,12.73-1.45.76,2.45,1.47,4.83,2.11,7.09,1.34,4.74,2.43,9,3.32,12.68l3-2.42c-.89-3.33-2-7.07-3.21-11.16-.76-2.49-1.62-5.13-2.52-7.83.92-.48,8.42-4.44,10.87-7.58,2.21-2.84,4.25-7.07,3.26-10.76a6.39,6.39,0,0,0-8.33-4.6c-5.05,1.91-7.41,11.37-7.17,16.18,0,.29.51,3.36.86,5.28-.38-1.1-.73-2.17-1.13-3.3-.78-2.25-1.62-4.46-2.52-6.85-.48-1.13-1-2.28-1.44-3.44s-1.08-2.33-1.63-3.51c-1.31-2.7-2.77-5.38-4.31-8,2-.69,8.89-3.23,11.53-5.71s5.27-6.35,4.86-10.14a6.4,6.4,0,0,0-7.54-5.82c-5.28,1.13-9.05,10.12-9.54,14.92,0,.3,0,3.78.06,5.69-.93-1.59-1.86-3.19-2.86-4.77-2.88-4.56-5.93-9.1-9-13.63-.93-1.39-1.84-2.79-2.75-4.18.7-.24,9-3.08,11.95-5.86,2.62-2.47,5.27-6.35,4.86-10.14a6.4,6.4,0,0,0-7.54-5.81c-5.28,1.12-9,10.11-9.54,14.91,0,.36,0,5.37.1,6.65-2-3.07-4-6.15-5.82-9.26a112.33,112.33,0,0,1-6.63-13c.33-.11,9-3,12-5.89,2.62-2.47,5.27-6.35,4.86-10.14a6.4,6.4,0,0,0-7.54-5.81c-5.28,1.13-9.05,10.11-9.54,14.91,0,.38,0,5.77.11,6.75-.11-.26-.26-.52-.36-.78a81.83,81.83,0,0,1-4.18-14c-.58-2.64-1-5.19-1.31-7.69,1.67-.38,9.3-2.19,12.3-4.46s5.94-5.73,5.94-9.55a6.39,6.39,0,0,0-6.85-6.6c-5.37.54-10.11,9.06-11.12,13.77-.06.26-.33,2.93-.5,4.88-.13-1.13-.29-2.29-.39-3.37-.41-4.07-.54-7.82-.62-11.14,0-1.89,0-3.59,0-5.19,1.44-1.23,7.21-6.25,8.8-9.59s2.63-7.82.88-11.21a6.4,6.4,0,0,0-9.12-2.7c-4.53,2.95-4.8,12.69-3.53,17.35.11.4,2.56,6.49,2.63,6.43l.09-.08c-.06,1.54-.1,3.19-.11,5,0,3.33,0,7.09.37,11.18a115.28,115.28,0,0,0,1.66,13.15,83.88,83.88,0,0,0,3.93,14.3l.07.16c-1-1.24-3.84-4.62-4.09-4.86-3.51-3.31-12.24-7.64-17-5a6.39,6.39,0,0,0-1.9,9.32c2.17,3.14,6.71,4.34,10.31,4.49,4.06.18,12.23-3.12,12.88-3.39a112.92,112.92,0,0,0,6.55,13.61c1.43,2.56,3,5.1,4.51,7.63-.88-1-1.68-2-1.8-2.1-3.51-3.31-12.24-7.64-17-5a6.39,6.39,0,0,0-1.89,9.32c2.17,3.14,6.71,4.34,10.31,4.49s10.68-2.51,12.52-3.25c.61,1,1.21,1.94,1.82,2.89,2.93,4.61,5.88,9.19,8.63,13.78,1,1.61,1.87,3.24,2.78,4.86-.79-.92-1.46-1.7-1.57-1.81-3.51-3.31-12.24-7.64-17-5a6.39,6.39,0,0,0-1.89,9.32c2.16,3.14,6.71,4.34,10.31,4.49s10-2.26,12.19-3.12c.88,1.69,1.75,3.39,2.53,5.06.5,1.16,1.06,2.24,1.5,3.43l1.36,3.48c.79,2.24,1.61,4.54,2.32,6.75.51,1.53,1,3,1.42,4.47-.94-1.62-2.87-4.75-3.06-5a24.78,24.78,0,0,0-10.22-7.24,7.26,7.26,0,0,0-1-1,6.38,6.38,0,0,0-9.48.75c-3.16,4.38.08,13.57,2.94,17.46.17.23,2.28,2.51,3.63,3.93-.92-.71-1.81-1.42-2.77-2.14-1.88-1.44-3.81-2.82-5.87-4.31l-3.1-2.08c-1-.72-2.19-1.35-3.29-2-2.59-1.53-5.29-3-8-4.33,1.26-1.66,5.64-7.6,6.47-11.12s.89-8.21-1.55-11.14a6.39,6.39,0,0,0-9.49-.69c-3.78,3.85-2,13.43.27,17.7.14.27,2.09,3.15,3.19,4.72-1.65-.82-3.31-1.64-5-2.41-4.92-2.22-10-4.31-15-6.42l-4.6-2c.45-.58,5.81-7.53,6.74-11.48.82-3.51.89-8.21-1.55-11.14a6.39,6.39,0,0,0-9.49-.69c-3.78,3.85-2,13.43.27,17.7.17.32,3,4.47,3.75,5.49-3.37-1.45-6.72-2.92-10-4.51a113.08,113.08,0,0,1-12.71-7.19c.21-.28,5.84-7.5,6.79-11.55.82-3.51.89-8.2-1.55-11.14a6.4,6.4,0,0,0-9.49-.69c-3.78,3.86-2,13.43.27,17.7.18.34,3.21,4.8,3.81,5.57-.23-.16-.49-.29-.73-.45a81.93,81.93,0,0,1-11.22-9.4c-1.94-1.88-3.68-3.79-5.33-5.69,1.18-1.24,6.54-7,7.8-10.5s1.79-8.06-.31-11.24a6.4,6.4,0,0,0-9.36-1.73c-4.19,3.41-3.44,13.13-1.68,17.62.1.25,1.34,2.62,2.27,4.34-.73-.87-1.5-1.75-2.19-2.59-2.58-3.17-4.75-6.23-6.65-8.95-1.07-1.56-2-3-2.86-4.34.52-1.82,2.57-9.19,2.06-12.85s-2.13-8-5.46-9.83a6.39,6.39,0,0,0-9.1,2.78c-2.14,5,3,13.23,6.63,16.41.31.28,5.71,4,5.74,3.91a.53.53,0,0,0,0-.11c.81,1.32,1.68,2.72,2.67,4.22,1.84,2.78,4,5.89,6.48,9.12a112.2,112.2,0,0,0,8.63,10A83.52,83.52,0,0,0,180,294.6l.15.1c-1.5-.5-5.75-1.74-6.09-1.8-4.75-.82-14.42.38-16.93,5.17a6.39,6.39,0,0,0,3.56,8.82C164.26,308.31,168.71,306.81,171.8,305Z"></path><path d="M227.41,226.61c.09,0-2.66-6-2.88-6.32-2.51-4.12-9.79-10.6-15-9.34a6.39,6.39,0,0,0-4.29,8.49c1.26,3.6,5.32,6,8.76,7.06C218,227.79,227.4,226.61,227.41,226.61Z"></path></g><g style="opacity:0.2"><path d="M552.92,235.86c1.19,3.37,6.81,9.1,6.81,9.11s2.66-4.85,2.79-5.18c1.48-3.8,2.11-12-1.43-14.9a5.41,5.41,0,0,0-7.91,1.46C551.4,229.05,551.9,233,552.92,235.86Z"></path><path d="M537.85,253.76c2,2.83,8.37,6.63,8.89,6.93a95.67,95.67,0,0,0-5.81,11.38c-1,2.28-1.91,4.6-2.81,6.95.25-1.13.46-2.15.48-2.29.43-4.06-1.13-12.15-5.31-14a5.41,5.41,0,0,0-7.25,3.5c-1,3.07.52,6.74,2.26,9.24s7.17,5.89,8.61,6.76c-.34.91-.68,1.8-1,2.71-1.6,4.33-3.17,8.66-4.85,12.86-.59,1.48-1.22,2.92-1.85,4.36.22-1,.4-1.85.42-2,.42-4.06-1.14-12.15-5.32-14a5.4,5.4,0,0,0-7.24,3.5c-1,3.07.52,6.74,2.26,9.24s6.64,5.56,8.35,6.6c-.69,1.46-1.38,2.92-2.11,4.3-.53.93-1,1.86-1.54,2.76l-1.64,2.7c-1.1,1.68-2.23,3.42-3.35,5-.77,1.13-1.53,2.19-2.28,3.25.6-1.46,1.72-4.36,1.79-4.61,1-3.95.72-12.19-3.13-14.65a5.41,5.41,0,0,0-7.69,2.37c-1.46,2.88-.51,6.74.83,9.47,1.48,3,7,7.59,7.68,8.16-1.26,1.76-2.5,3.46-3.69,5-2.64,3.51-5.07,6.57-7.17,9.13l2.05,2.19c2.12-2.7,4.6-6,7.3-9.72,1.28-1.79,2.62-3.72,4-5.71a61.17,61.17,0,0,0,6.41,2.55c-.25,3.44,1.69,9.84,1.94,10.66-2,.78-4,1.51-5.87,2.18-3.91,1.39-7.46,2.56-10.51,3.51l2.21,2.36c2.76-.94,5.86-2,9.24-3.33,2-.78,4.24-1.66,6.47-2.57.45.75,4.22,6.86,7,8.74,2.52,1.71,6.21,3.19,9.27,2.16a5.41,5.41,0,0,0,3.41-7.29c-1.9-4.16-10-5.62-14.06-5.15-.24,0-2.8.63-4.41,1,.91-.38,1.8-.74,2.73-1.14,1.85-.79,3.67-1.62,5.63-2.52L541,335c1-.45,1.9-1,2.86-1.57,2.21-1.26,4.39-2.65,6.55-4.09.69,1.61,3.22,7.32,5.47,9.4s5.65,4.1,8.83,3.53a5.4,5.4,0,0,0,4.48-6.68c-1.25-4.4-9-7.07-13.12-7.22-.25,0-3.19.22-4.8.37,1.29-.87,2.58-1.74,3.86-2.68,3.69-2.68,7.35-5.52,11-8.33,1.12-.86,2.25-1.7,3.37-2.55.24.57,3.11,7.42,5.62,9.75,2.23,2.08,5.66,4.1,8.83,3.53a5.4,5.4,0,0,0,4.48-6.68c-1.24-4.4-9-7.07-13.12-7.22-.3,0-4.53.32-5.6.46,2.47-1.87,5-3.71,7.48-5.43a95.7,95.7,0,0,1,10.61-6.33c.11.27,3.07,7.43,5.64,9.82,2.24,2.07,5.66,4.09,8.84,3.53a5.41,5.41,0,0,0,4.48-6.69c-1.25-4.39-9-7.07-13.12-7.21-.32,0-4.87.35-5.69.47.21-.11.42-.24.64-.35a69.57,69.57,0,0,1,11.6-4.31c2.2-.63,4.33-1.12,6.41-1.54.42,1.39,2.38,7.72,4.46,10.13s5.17,4.69,8.39,4.48a5.41,5.41,0,0,0,5.19-6.15c-.76-4.51-8.21-8-12.25-8.62-.22,0-2.49-.11-4.14-.14.94-.18,1.92-.38,2.82-.53,3.41-.57,6.57-.88,9.37-1.14,1.59-.13,3-.22,4.38-.29,1.12,1.15,5.68,5.74,8.58,6.9s6.75,1.77,9.51.1a5.4,5.4,0,0,0,1.77-7.85c-2.75-3.65-11-3.33-14.84-2-.33.12-5.33,2.52-5.28,2.58l.07.07c-1.3,0-2.69.1-4.22.2-2.81.19-6,.44-9.41.94a95.1,95.1,0,0,0-11,2.14,70,70,0,0,0-11.85,4.12L588,302c1-.89,3.69-3.5,3.87-3.72,2.6-3.15,5.76-10.76,3.29-14.61a5.4,5.4,0,0,0-8-1.07c-2.53,2-3.28,5.9-3.21,8.95.08,3.44,3.32,10.15,3.58,10.68a95,95,0,0,0-11.11,6.29c-2.08,1.35-4.14,2.78-6.18,4.24.83-.81,1.57-1.53,1.66-1.64,2.6-3.15,5.76-10.76,3.3-14.61a5.42,5.42,0,0,0-8-1.08c-2.53,2-3.28,5.91-3.21,9s2.72,8.87,3.45,10.38l-2.34,1.7c-3.72,2.74-7.42,5.48-11.14,8.06-1.31.91-2.63,1.76-3.95,2.61.74-.71,1.36-1.32,1.44-1.42,2.6-3.15,5.76-10.76,3.3-14.61a5.41,5.41,0,0,0-8-1.07c-2.53,2-3.28,5.9-3.21,8.95s2.47,8.3,3.32,10.11c-1.38.84-2.76,1.67-4.13,2.42-.95.49-1.83,1-2.81,1.46l-2.85,1.35c-1.85.78-3.75,1.61-5.57,2.33-1.26.52-2.48,1-3.7,1.46,1.32-.9,3.85-2.69,4-2.87a21,21,0,0,0,5.54-9,6.16,6.16,0,0,0,.82-.87,5.41,5.41,0,0,0-1.17-8c-3.88-2.42-11.45.83-14.57,3.47-.18.15-2,2.06-3.11,3.28.55-.82,1.09-1.6,1.65-2.45,1.1-1.68,2.16-3.38,3.31-5.21.52-.9,1-1.81,1.58-2.73s1-1.92,1.52-2.89c1.15-2.27,2.2-4.63,3.21-7,1.46,1,6.72,4.33,9.74,4.82s7,.3,9.32-1.92a5.41,5.41,0,0,0,0-8.05c-3.47-3-11.45-.91-14.93,1.22-.21.13-2.54,1.94-3.8,3,.6-1.45,1.2-2.89,1.75-4.37,1.6-4.28,3.08-8.65,4.58-13,.46-1.33.93-2.66,1.4-4,.52.35,6.68,4.48,10.07,5,3,.5,7,.29,9.31-1.93a5.41,5.41,0,0,0,0-8c-3.47-3-11.44-.91-14.93,1.22-.26.17-3.6,2.77-4.42,3.48,1-2.93,2.09-5.84,3.25-8.66a94.59,94.59,0,0,1,5.36-11.13c.24.16,6.65,4.5,10.12,5.08,3,.49,7,.29,9.31-1.93a5.4,5.4,0,0,0,.05-8.05c-3.46-3-11.44-.91-14.92,1.22-.27.17-3.87,3-4.48,3.53.11-.21.21-.44.34-.64a69.92,69.92,0,0,1,7.29-10c1.48-1.74,3-3.32,4.51-4.82,1.11.93,6.24,5.13,9.3,6s6.9,1.06,9.47-.89a5.42,5.42,0,0,0,.93-8c-3.11-3.34-11.27-2.16-15-.42-.2.09-2.13,1.28-3.53,2.16.69-.67,1.39-1.37,2.07-2,2.52-2.35,5-4.36,7.17-6.11,1.26-1,2.41-1.86,3.5-2.66,1.57.34,7.9,1.65,11,1s6.61-2.24,8-5.16a5.4,5.4,0,0,0-2.85-7.52c-4.31-1.53-11,3.28-13.48,6.52-.21.28-3.06,5.05-3,5.06l.09,0c-1.06.75-2.19,1.56-3.41,2.48-2.23,1.71-4.74,3.67-7.33,6a97.53,97.53,0,0,0-8,7.85,70.63,70.63,0,0,0-7.6,10,.83.83,0,0,0-.07.13c.33-1.29,1.14-4.95,1.17-5.24.43-4.06-1.13-12.15-5.31-14a5.41,5.41,0,0,0-7.25,3.5C534.59,247.59,536.11,251.26,537.85,253.76Z"></path><path d="M607.09,296.29c0,.08,4.89-2.58,5.18-2.79,3.33-2.35,8.39-8.85,7-13.22a5.41,5.41,0,0,0-7.41-3.14c-3,1.27-4.72,4.83-5.46,7.79C605.57,288.4,607.09,296.28,607.09,296.29Z"></path></g></g><g id="freepik--Charts--inject-90"><rect x="652.45" y="147.4" width="12.73" height="82.37" style="fill:none;stroke:#263238;stroke-linejoin:round"></rect><rect x="670.43" y="196.82" width="12.73" height="32.95" style="fill:none;stroke:#263238;stroke-linejoin:round"></rect><rect x="688.4" y="173.61" width="12.73" height="56.16" style="fill:none;stroke:#263238;stroke-linejoin:round"></rect><rect x="706.37" y="213.3" width="12.73" height="16.47" style="fill:none;stroke:#263238;stroke-linejoin:round"></rect><line x1="643.47" y1="148.9" x2="635.23" y2="148.9" style="fill:none;stroke:#263238;stroke-linejoin:round"></line><line x1="643.47" y1="162.35" x2="635.23" y2="162.35" style="fill:none;stroke:#263238;stroke-linejoin:round"></line><line x1="643.47" y1="175.81" x2="635.23" y2="175.81" style="fill:none;stroke:#263238;stroke-linejoin:round"></line><line x1="643.47" y1="189.26" x2="635.23" y2="189.26" style="fill:none;stroke:#263238;stroke-linejoin:round"></line><line x1="643.47" y1="202.72" x2="635.23" y2="202.72" style="fill:none;stroke:#263238;stroke-linejoin:round"></line><line x1="643.47" y1="216.18" x2="635.23" y2="216.18" style="fill:none;stroke:#263238;stroke-linejoin:round"></line><line x1="643.47" y1="229.63" x2="635.23" y2="229.63" style="fill:none;stroke:#263238;stroke-linejoin:round"></line><circle cx="681.33" cy="278.64" r="30.77" style="fill:none;stroke:#263238;stroke-linejoin:round"></circle><polyline points="681.33 247.88 681.33 278.64 709.94 290.82" style="fill:none;stroke:#263238;stroke-linejoin:round"></polyline><line x1="681.33" y1="278.64" x2="701.98" y2="300.84" style="fill:none;stroke:#263238;stroke-linejoin:round"></line></g><g id="freepik--Gear--inject-90"><path d="M453.89,276.2,479,279.66l6-26.47-23.3-7.51v-.21a63.73,63.73,0,0,0-5-24.91l17.55-16.7-16.93-21.23-19.54,13a63.63,63.63,0,0,0-23.71-12l-2-23.33H384.9l-2,23a63.77,63.77,0,0,0-24.05,11.51l-19.63-13L322.27,203l17.18,16.35a63.76,63.76,0,0,0-5.55,25.26l-23.32,7.51,6,26.47,24.61-3.39a63.87,63.87,0,0,0,15.55,19.26l-9,23.9,24.47,11.78,13.07-22a64.15,64.15,0,0,0,24.17.16l13.25,22.3,24.46-11.78-9-23.8A64.12,64.12,0,0,0,453.89,276.2ZM348.76,245.47a49.06,49.06,0,1,1,49.06,49A49.05,49.05,0,0,1,348.76,245.47Z" style="fill:none;stroke:#263238;stroke-linejoin:round"></path></g><g id="freepik--Clock--inject-90"><circle cx="554.63" cy="121.14" r="30.54" transform="translate(76.79 427.67) rotate(-45)" style="fill:none;stroke:#263238;stroke-linejoin:round"></circle><circle cx="554.63" cy="121.14" r="26.58" style="fill:none;stroke:#263238;stroke-linejoin:round"></circle><polyline points="546.55 128.43 554.63 121.14 539.53 107.4" style="fill:none;stroke:#263238;stroke-linejoin:round"></polyline></g><g id="freepik--Arrows--inject-90"><path d="M512.28,130.74a163.46,163.46,0,0,0-116-47.8c-3,0-6,.1-9.05.26l-3-12.84-31,44.45,47.53,26.08-2.39-10.24a116.74,116.74,0,0,1,.15,233.44l-2.2,0H68.68v47.68H396.29q1.56,0,3.09,0a164.49,164.49,0,0,0,112.9-281Z" style="fill:#92DCE3;stroke:#263238;stroke-linecap:round;stroke-linejoin:round"></path><path d="M628.57,386.9l-40.34-36.21v12.37H526.92q-3.17,3.58-6.54,7a184.79,184.79,0,0,1-58.54,40.44l-.2.2H588.23v12.38Z" style="fill:#263238;stroke:#263238;stroke-linecap:round;stroke-linejoin:round"></path><path d="M279.43,247.24a116.65,116.65,0,0,1,88.26-113l-26.4-16,23.95-31.31c-75.39,14.39-132.55,80.79-132.55,160.31A162.47,162.47,0,0,0,270.43,351.5h73.62A116.58,116.58,0,0,1,279.43,247.24Z" style="fill:#263238;stroke:#263238;stroke-linecap:round;stroke-linejoin:round"></path><path d="M624.56,114.38a72.28,72.28,0,0,0-140.81-13.57A169,169,0,0,1,503.14,114a50.29,50.29,0,1,1,70.05,54.34l-4.7-10.16-13.25,29.62,31.15,9.08-4-8.57A72.29,72.29,0,0,0,624.56,114.38Z" style="fill:#263238"></path></g><g id="freepik--Box--inject-90"><circle cx="680.64" cy="390.24" r="41.81" style="fill:#263238;stroke:#263238;stroke-linecap:round;stroke-linejoin:round"></circle><polygon points="684.99 410.57 660.89 405.5 660.89 378.61 684.99 383.68 684.99 410.57" style="fill:#92DCE3;stroke:#263238;stroke-linecap:round;stroke-linejoin:round"></polygon><polygon points="703.94 379.23 708.31 389.16 703.51 387.84 703.94 379.23" style="fill:#92DCE3;stroke:#263238;stroke-linecap:round;stroke-linejoin:round"></polygon><polygon points="684.99 383.68 703.94 379.23 703.94 404 684.99 410.57 684.99 383.68" style="fill:#92DCE3;stroke:#263238;stroke-linecap:round;stroke-linejoin:round"></polygon><polygon points="703.94 379.23 681.95 373.34 660.89 378.61 684.99 383.68 703.94 379.23" style="fill:#92DCE3;stroke:#263238;stroke-linecap:round;stroke-linejoin:round"></polygon><polygon points="660.89 378.61 653.39 391.8 678.28 397.26 684.99 383.68 660.89 378.61" style="fill:#92DCE3;stroke:#263238;stroke-linecap:round;stroke-linejoin:round"></polygon><line x1="681.95" y1="373.34" x2="681.95" y2="382.68" style="fill:#92DCE3;stroke:#263238;stroke-linecap:round;stroke-linejoin:round"></line><line x1="659.99" y1="367.93" x2="666.94" y2="374.05" style="fill:none;stroke:#fff;stroke-linecap:round;stroke-linejoin:round"></line><line x1="704.83" y1="367.93" x2="697.88" y2="374.05" style="fill:none;stroke:#fff;stroke-linecap:round;stroke-linejoin:round"></line><line x1="682.05" y1="360.26" x2="682.05" y2="369.85" style="fill:none;stroke:#fff;stroke-linecap:round;stroke-linejoin:round"></line></g><g id="freepik--character-2--inject-90"><path d="M365.75,246.65s-8.11-3.58-13.82.47-4.77,6.2-4.77,6.2-5-3.34-7.39-.48.48,4.29.24,5.24-3.33.72-2.62,2.86,3.34,3.34,3.34,3.34-1.91,1.91-.24,3.33,2.38,2.39,1.91,3.1-2.63,1-1,2.39,4.53,1.66,4.53,0-1-2.63,0-4.06,3.87-3,3.36-1.38,3.31,10,3.31,10-.67-.16-2.95,2.19-.62,3.29-1.1,4-3.34-.24-3.57,1.43a5.74,5.74,0,0,0,.23,3.09c.24.72,25.26,2.63,26.93,2.39s5.48-.72,6.19-1.91-.95-5.24-1.9-6.19,1.19-2.39.47-4.05-5.83-3.93-5.83-3.93a15.49,15.49,0,0,0,2-3.22c.24-1-3-3.52-3-3.52s5.41-3.87,4.69-9.11-2.38-6.91-2.38-6.91S369.8,246.17,365.75,246.65Z" style="fill:#263238;stroke:#263238;stroke-linecap:round;stroke-linejoin:round"></path><path d="M324.35,322.85c5.18-4,16.12-22.18,16.12-22.18s1.32,9.28,2.86,13.71,3.62,7.33,3.1,12.43c0,0-.05-.79-.05-.77l28.07.82c-.86-1.55-1.41-1.83-1.54-2.51-.46-2.39,2-7.69,2-10.11s1.87-7,1.87-7,8.09,17.94,9.95,19.45,7.06,2.35,6.75-3.28-9.75-27.36-11.41-31.14-3.74-6.4-7.75-6-4.94,1.08-7.67,1.24-1.53-13-1.53-13a10,10,0,0,1-9.91,1.52s.7,6.89-.47,9.05-1.77,2.84-4.57,1.87-7.17-4.28-9.84-3S318.93,316.38,317.46,319c-1,1.76-3.58,6.27-2.8,7.48Z" style="fill:#fff;stroke:#263238;stroke-linecap:round;stroke-linejoin:round"></path><path d="M346.43,326.81c0-.27,0-.52.05-.77h-.1S346.43,326.82,346.43,326.81Z" style="fill:#92DCE3;stroke:#263238;stroke-linecap:round;stroke-linejoin:round"></path><path d="M340.35,283.91c-2.67,1.27-21.42,32.47-22.89,35.13-1,1.76-3.58,6.27-2.8,7.48l9.69-3.67c5.18-4,16.12-22.18,16.12-22.18s1.32,9.28,2.86,13.71c1.46,4.2,3.4,7,3.15,11.66l28,.82c-.86-1.55-1.41-1.83-1.54-2.51-.46-2.39,2-7.69,2-10.11s1.87-7,1.87-7,8.09,17.94,9.95,19.45,7.06,2.35,6.75-3.28-9.75-27.36-11.41-31.14-3.74-6.4-7.75-6a32.58,32.58,0,0,0-4.25.69l-11.63,14.15-8.27-14.14C347.4,285.93,343,282.63,340.35,283.91Z" style="fill:#263238;stroke:#263238;stroke-linecap:round;stroke-linejoin:round"></path><path d="M346.74,324.65s-14.81,12.79-15.14,24.85c-.12,4.18.68,13.52,7.81,14.5s38.81,0,38.81,0,2.46-.74,3.94-9.1-9.35-29.76-9.35-29.76Z" style="fill:#263238;stroke:#263238;stroke-linecap:round;stroke-linejoin:round"></path><path d="M357.61,329.74a37.43,37.43,0,0,1-3.1,3.52c-.41.16-.9,1.47-1.8,3.43s-.66,2.13.41,1.64,2.12-2.7,2.12-2.7l2.05-1.31S359.33,329.17,357.61,329.74Z" style="fill:#fff;stroke:#263238;stroke-linecap:round;stroke-linejoin:round"></path><path d="M385.33,320.76s-2.53,3.42-8.41,6-11.58,1.83-14.8,2-3.7-.58-5.07,2-.15,9.65.52,10.1.74-2.8.74-2.8.59,3.13,1.53,3.19,1.23-2.67,1.23-2.67.83,1.93,1.59,1.67.61-2.32.61-2.32.92,1.22,1.38.56-.64-4.71-.64-4.71,4.17.68,5.69.16a5.07,5.07,0,0,0,2.34-1.71,96.62,96.62,0,0,0,12.19-.73c4.61-.75,11-5.55,9.52-8.51s-6.37-3.64-6.37-3.64" style="fill:#fff;stroke:#263238;stroke-linecap:round;stroke-linejoin:round"></path><path d="M363.27,337.94s-1.52-4.34-.92-6.08" style="fill:none;stroke:#263238;stroke-linecap:round;stroke-linejoin:round"></path><path d="M361.07,338.59a28.11,28.11,0,0,1-.81-6.8" style="fill:none;stroke:#263238;stroke-linecap:round;stroke-linejoin:round"></path><path d="M358.31,338.07s-.75-4.61-.25-5.63" style="fill:none;stroke:#263238;stroke-linecap:round;stroke-linejoin:round"></path><path d="M385.33,320.76a18.58,18.58,0,0,1-4.29,3.78,10,10,0,0,1,3.74,6.86c4.55-1,10.4-5.56,9-8.4s-6.37-3.64-6.37-3.64" style="fill:#263238;stroke:#263238;stroke-linecap:round;stroke-linejoin:round"></path><path d="M339.13,311.17a18.76,18.76,0,0,0,3.39-1.18c1.74-.8,3-2.54,3.49-1.87s.14,1.89-.87,2.75a28.66,28.66,0,0,1-4,2.34S338,312.59,339.13,311.17Z" style="fill:#fff;stroke:#263238;stroke-linecap:round;stroke-linejoin:round"></path><path d="M331.79,318.07s4-10.6,5.81-10.63,10.42,1.49,10,2.35a2.44,2.44,0,0,1-2.47,1.08,42.69,42.69,0,0,1-4.88-1.12l-1.13,1.42s4,1.14,4.59,1.43,3,2.62,2.38,3.54-.84.51-.84.51a2.43,2.43,0,0,1,0,1.64c-.35.73-.72.56-.72.56h0a1.25,1.25,0,0,1-1.68,1c-.89-.35-.9-2.05-2-1.91s-1.44-.06-1.44-.06a38,38,0,0,1-3.76,3.17,6.88,6.88,0,0,1-3.51,1s-7.33,6.18-13.54,6.95c-6.91.87-4.56-6.57-1.11-10S331.79,318.07,331.79,318.07Z" style="fill:#fff;stroke:#263238;stroke-linecap:round;stroke-linejoin:round"></path><path d="M345.26,316.65s-1.33-2.17-2.18-2.58a21.72,21.72,0,0,0-3.67-.83" style="fill:none;stroke:#263238;stroke-linecap:round;stroke-linejoin:round"></path><path d="M344.51,318.85s-2-3-2.67-3-2.71-.37-2.71-.37" style="fill:none;stroke:#263238;stroke-linecap:round;stroke-linejoin:round"></path><path d="M320.25,323a10.57,10.57,0,0,1,3-5.75c-2.32.09-4.55.56-5.8,1.82-3.45,3.47-5.8,10.91,1.11,10a16.21,16.21,0,0,0,4.14-1.17A5.73,5.73,0,0,1,320.25,323Z" style="fill:#263238;stroke:#263238;stroke-linecap:round;stroke-linejoin:round"></path><path d="M349.33,267.66s-1.5-.69-1.5,1.12.27,2.81,1.81,3.81.27-6.25.27-6.25Z" style="fill:#fff;stroke:#263238;stroke-linecap:round;stroke-linejoin:round"></path><path d="M358.79,255s-2.36.56-2.38,2.36.24,2.41-1.13,3-2.12,1-1.91,2.28.77,1.67-1,2-1.62-.87-2,.83-.44,2.2-1.08,2.3.15,5.69,1.69,9,5.15,8.27,7.32,8.56,5-2.33,6.9-4.59c1.75-2,4.33-8.24,4.33-8.24l.55-.59s1,0,1.24-1.35c0,0-.19-2.09-1.25-2.57a5.17,5.17,0,0,1-2.22-2.56c-.09-.48.44-1.22-.27-1.59s-1.91-.65-2.26-1.74.85-2.75-.56-3.33-2.14-.13-2.33-1.24.42-2.36-.64-2.83S358.79,255,358.79,255Z" style="fill:#fff;stroke:#263238;stroke-linecap:round;stroke-linejoin:round"></path><path d="M357.33,270.23a5.52,5.52,0,0,1-.09,3.53c-.72,1.54,1.63,1.54,2.09.36" style="fill:none;stroke:#263238;stroke-linecap:round;stroke-linejoin:round"></path><path d="M368.74,268.24s1.9-2.53,2.63-1.63,1.08,4.44,0,5.7-3.08.55-3.08.55" style="fill:#fff;stroke:#263238;stroke-linecap:round;stroke-linejoin:round"></path><path d="M355.68,269.68c.17,1,0,1.85-.44,1.92s-.87-.68-1-1.67,0-1.85.44-1.92S355.51,268.69,355.68,269.68Z" style="fill:#263238"></path><path d="M363,269.78c0,1-.35,1.82-.76,1.82s-.74-.83-.73-1.83.35-1.82.77-1.81S363,268.78,363,269.78Z" style="fill:#263238"></path><path d="M356.1,277.32s1.54,2.06,6,0" style="fill:none;stroke:#263238;stroke-linecap:round;stroke-linejoin:round"></path><path d="M362.45,343.29a7.54,7.54,0,0,0-3.4,1.4c-4.59,3.35-3.41,10.94-3.57,16q-.3,9.47-.61,18.93c-.3,9.28-.44,18.6-1,27.87-.46,7.1-3.61,10.11-2.08,17.67s5.49,5.89,7.62-1.08.35-12.49.1-15.56c-.2-2.39,10.78-38.63,13.73-55C374.29,347.37,368,342.44,362.45,343.29Z" style="fill:#fff;stroke:#263238;stroke-linecap:round;stroke-linejoin:round"></path><path d="M360.3,419.19a.81.81,0,0,0-.58.42c-1.06,1.77-4.6,4.6-6.2,1.77s0-9.56,0-9.56l-.46.48c-1,4.12-2.44,7.22-1.31,12.82,1.52,7.55,5.49,5.89,7.62-1.08A23.44,23.44,0,0,0,360.3,419.19Z" style="fill:#263238;stroke:#263238;stroke-linecap:round;stroke-linejoin:round"></path><path d="M343.88,342.72a7.68,7.68,0,0,1,3.6.75c5.13,2.45,5.37,10.12,6.45,15q2,9.25,4.09,18.5c2,9.06,3.87,18.19,6.17,27.19,1.76,6.9,4.13,12.31,4,20s-4.32,6.82-7.69.35-1.37-15.25-1.69-18.32c-.25-2.38-17.73-36-23.65-51.55C333,348.92,338.27,342.91,343.88,342.72Z" style="fill:#fff;stroke:#263238;stroke-linecap:round;stroke-linejoin:round"></path><path d="M367.5,416.56c0,.2-.06.74-.17,2.17-.17,2.3-1.59,4.95-4.6,4.07s-3.89-7.26-3.89-7.26l-.27.57a20,20,0,0,0,2,8.45c3.37,6.47,7.58,7.36,7.69-.35a36.27,36.27,0,0,0-.29-5c-.11-.71-.2-1.34-.27-1.82C367.61,417.11,367.55,416.83,367.5,416.56Z" style="fill:#263238;stroke:#263238;stroke-linecap:round;stroke-linejoin:round"></path><rect x="329.59" y="312.82" width="48.19" height="29.94" style="fill:#bfbfbf;stroke:#263238;stroke-linecap:round;stroke-linejoin:round"></rect><rect x="329.59" y="342.07" width="48.19" height="1.73" style="fill:#bfbfbf;stroke:#263238;stroke-linecap:round;stroke-linejoin:round"></rect><path d="M352.45,266.88a3.77,3.77,0,0,1,3.26-.54" style="fill:none;stroke:#263238;stroke-linecap:round;stroke-linejoin:round"></path><path d="M360.14,266.07s2.81-.46,4.07,1.17" style="fill:none;stroke:#263238;stroke-linecap:round;stroke-linejoin:round"></path></g><g id="freepik--character-1--inject-90"><polygon points="124.57 198.21 120.73 201.94 121.18 209.17 127.63 201.15 124.57 198.21" style="fill:#fff;stroke:#263238;stroke-linecap:round;stroke-linejoin:round"></polygon><path d="M117.29,139.56s2.77,5.41,2.24,8.18-.53,5.28.4,6.73,2.77,2.24,1.84,3.3a11.09,11.09,0,0,1-2.77,2s-.79,3.56-1.45,5.8-.53,2.64-2.9,2.9a19.52,19.52,0,0,1-3.7.14,146.49,146.49,0,0,1-1.84-15.44C108.32,143,117.29,139.56,117.29,139.56Z" style="fill:#fff;stroke:#263238;stroke-linecap:round;stroke-linejoin:round"></path><path d="M118.3,152.22c0,.9-.24,1.62-.53,1.62s-.52-.72-.52-1.62.24-1.62.52-1.62S118.3,151.33,118.3,152.22Z" style="fill:#263238"></path><path d="M116.1,149.33s2-3.18,3.43-1.59" style="fill:none;stroke:#263238;stroke-linecap:round;stroke-linejoin:round"></path><path d="M118.3,162.29a3.41,3.41,0,0,1-2.32-1.16" style="fill:none;stroke:#263238;stroke-linecap:round;stroke-linejoin:round"></path><path d="M140.36,183l17.31,7.16a1.32,1.32,0,0,1,.56,2l-22,29.78a1.33,1.33,0,0,1-1.77.33l-14.88-9.45a1.23,1.23,0,0,1-.35-1.74l19.57-27.63A1.33,1.33,0,0,1,140.36,183Z" style="fill:#fff;stroke:#263238;stroke-linecap:round;stroke-linejoin:round"></path><polygon points="139.74 184.76 156.7 191.77 135.65 220.29 121.11 211.06 139.74 184.76" style="fill:#fff;stroke:#263238;stroke-linecap:round;stroke-linejoin:round"></polygon><path d="M124.12,199.22s2.6-3.28,3.28-3.84,4.41-2.26,5.09-3.17.9,1.59-.34,2.38a28.74,28.74,0,0,0-2.6,1.92,6.53,6.53,0,0,1-1.92,3.05,4.77,4.77,0,0,1-2.61,1" style="fill:#fff;stroke:#263238;stroke-linecap:round;stroke-linejoin:round"></path><rect x="144.38" y="187.5" width="1.02" height="8.55" transform="translate(-89.73 244.01) rotate(-65.48)" style="fill:#92DCE3"></rect><polygon points="142.95 194.31 138.68 200.24 144.16 203.31 148.78 197.24 142.95 194.31" style="fill:#92DCE3"></polygon><polygon points="137.02 191.02 127.99 203.86 130.2 205.1 139.32 192.26 137.02 191.02" style="fill:#92DCE3"></polygon><path d="M93.54,223.07s-6.2,13.46-5.94,22.43,4.75,19,5.41,20.71,3.7,17.28,3,23.88-5.28,9-7.79,16-5.93,28.23-6.33,33.38-2.11,19-2.37,20.71-.27,3.56.92,3.56h20s1.32-.13,1.06-.92-3-2-5.54-4.35-7-5.28-7.26-7.26,1.72-10.55,3.83-15.44A51,51,0,0,1,98,326.5s9.76-17.28,12.13-31.93,7.13-38.78,7.13-38.78V224.92Z" style="fill:#263238;stroke:#263238;stroke-linecap:round;stroke-linejoin:round"></path><path d="M96.05,358.43c-2.51-2.38-7-5.28-7.26-7.26-.17-1.3.62-5.44,1.79-9.51l-8.73-1.21c-.52,5.75-2,18.08-2.29,19.69s-.27,3.56.92,3.56h20s1.32-.13,1.06-.92S98.55,360.8,96.05,358.43Z" style="fill:#fff;stroke:#263238;stroke-linecap:round;stroke-linejoin:round"></path><path d="M96.05,358.43c-1.64-1.55-4.1-3.32-5.7-4.92l-.93,2.59s-6.36-.45-9.26-.64c-.29,2.35-.52,4.13-.6,4.68-.27,1.72-.27,3.56.92,3.56h20s1.32-.13,1.06-.92S98.55,360.8,96.05,358.43Z" style="fill:#fff;stroke:#263238;stroke-linecap:round;stroke-linejoin:round"></path><path d="M93.67,254.21l3.43,4.22s2.64,14,3.56,23.74.27,9.77-1.32,17.68-3.69,12.14-2.5,18.73,3.16,39.05,3.43,40.51-.38,4.09,1.07,4.61,23.33,0,23.33,0,1.59-1.71.66-2.5S117,358,113.7,355.39s-4.71-3.53-5-5.12,1-24.56,3.41-34.06,5.15-26.12,7-34.56,3.7-18.74,2.38-38c-.35-5.06-1.45-7.25-1.45-8.18s-.27-9.89-.13-10.42S97.1,223.2,97.1,223.2" style="fill:#263238;stroke:#263238;stroke-linecap:round;stroke-linejoin:round"></path><path d="M108.84,177.56s12.8,19.26,12.8,24.54,1.45,22.42-.4,23.21-13.58,1.32-18.07.8-9.23-1.46-10.42-2.91-1.77-1.89-2.3-7.44-3.24-18.66-3.37-26,10.42-15.85,14.11-15.06A34.84,34.84,0,0,1,108.84,177.56Z" style="fill:#fff;stroke:#263238;stroke-linecap:round;stroke-linejoin:round"></path><path d="M129.6,203.48a16.06,16.06,0,0,1,2.26-3.73c.93-.8,5.33-4,5.87-2.8s0,1.33-.8,1.73a25.87,25.87,0,0,0-3.34,3.34,14.37,14.37,0,0,1,2.8,1.19,2.88,2.88,0,0,1,.94,2.4c-.27.94-.54,2.67-1.2,2.94s-1.07-.94-1.07-.94a46.51,46.51,0,0,1-3.6,3.47,4.66,4.66,0,0,1-1.46.53s-23.76,14.55-25.49,15.48-4,1.6-4.93.66-8.76-33.84-9.43-37,.13-10,5.73-9.86,7.6,5,8.53,8.79c.6,2.44,3,25.41,3,25.41l19.67-6.87Z" style="fill:#fff;stroke:#263238;stroke-linecap:round;stroke-linejoin:round"></path><path d="M118.79,139.14s.53.91-2.84,6.49-3.85,8.12-2.46,11.57a10.87,10.87,0,0,1-1.23,10.34c-2.16,3.24-3.26,1.9-2.64,7s-4.34,6.72-7.14,6.45-6-5.61-8.59-4,.48,6.57-2.25,8-10.32-1.36-11.6-4.68,1.4-5.65-.76-8.81-5.27-4.07-3-9.39,8.49-5.09,8.7-8.64.66-14.57,4.42-19.13,11.86-4.4,16.54-3.21S119,137.06,118.79,139.14Z" style="fill:#263238;stroke:#263238;stroke-linecap:round;stroke-linejoin:round"></path><path d="M113.7,355.39c-3.3-2.64-4.71-3.53-5-5.12A81.13,81.13,0,0,1,109,342H99c.64,8.62,1.15,16.35,1.28,17,.26,1.45-.38,4.09,1.07,4.61s23.33,0,23.33,0,1.59-1.71.66-2.5S117,358,113.7,355.39Z" style="fill:#fff;stroke:#263238;stroke-linecap:round;stroke-linejoin:round"></path><path d="M124.67,363.7s1.59-1.71.66-2.5S117,358,113.7,355.39c-1.27-1-2.26-1.77-3-2.41-.08.2-.17.42-.26.7-.57,1.71-1,3.27-1,3.27l-9.42-.67c.12,1.56.21,2.58.25,2.81.26,1.45-.38,4.09,1.07,4.61S124.67,363.7,124.67,363.7Z" style="fill:#fff;stroke:#263238;stroke-linecap:round;stroke-linejoin:round"></path></g><g id="freepik--Documents--inject-90"><polygon points="176.32 92.55 143.02 92.55 143.02 49.4 168.73 49.4 176.32 56.05 176.32 92.55" style="fill:none;stroke:#263238;stroke-linejoin:round"></polygon><polygon points="168.73 49.4 168.73 56.44 176.32 56.44 168.73 49.4" style="fill:none;stroke:#263238;stroke-linejoin:round"></polygon><line x1="148.58" y1="62" x2="169.69" y2="62" style="fill:none;stroke:#263238;stroke-linejoin:round"></line><line x1="148.58" y1="67.37" x2="169.69" y2="67.37" style="fill:none;stroke:#263238;stroke-linejoin:round"></line><line x1="148.58" y1="72.75" x2="169.69" y2="72.75" style="fill:none;stroke:#263238;stroke-linejoin:round"></line><line x1="148.58" y1="78.12" x2="169.69" y2="78.12" style="fill:none;stroke:#263238;stroke-linejoin:round"></line><line x1="148.58" y1="83.49" x2="169.69" y2="83.49" style="fill:none;stroke:#263238;stroke-linejoin:round"></line><polygon points="212.45 108.76 179.15 108.76 179.15 65.61 204.86 65.61 212.45 72.27 212.45 108.76" style="fill:none;stroke:#263238;stroke-linejoin:round"></polygon><polygon points="204.86 65.61 204.86 72.65 212.45 72.65 204.86 65.61" style="fill:none;stroke:#263238;stroke-linejoin:round"></polygon><line x1="184.71" y1="78.21" x2="205.82" y2="78.21" style="fill:none;stroke:#263238;stroke-linejoin:round"></line><line x1="184.71" y1="83.59" x2="205.82" y2="83.59" style="fill:none;stroke:#263238;stroke-linejoin:round"></line><line x1="184.71" y1="88.96" x2="205.82" y2="88.96" style="fill:none;stroke:#263238;stroke-linejoin:round"></line><line x1="184.71" y1="94.33" x2="205.82" y2="94.33" style="fill:none;stroke:#263238;stroke-linejoin:round"></line><line x1="184.71" y1="99.7" x2="205.82" y2="99.7" style="fill:none;stroke:#263238;stroke-linejoin:round"></line><polygon points="176.32 141.19 143.02 141.19 143.02 98.04 168.73 98.04 176.32 104.69 176.32 141.19" style="fill:none;stroke:#263238;stroke-linejoin:round"></polygon><polygon points="168.73 98.04 168.73 105.07 176.32 105.07 168.73 98.04" style="fill:none;stroke:#263238;stroke-linejoin:round"></polygon><line x1="148.58" y1="110.64" x2="169.69" y2="110.64" style="fill:none;stroke:#263238;stroke-linejoin:round"></line><line x1="148.58" y1="116.01" x2="169.69" y2="116.01" style="fill:none;stroke:#263238;stroke-linejoin:round"></line><line x1="148.58" y1="121.38" x2="169.69" y2="121.38" style="fill:none;stroke:#263238;stroke-linejoin:round"></line><line x1="148.58" y1="126.75" x2="169.69" y2="126.75" style="fill:none;stroke:#263238;stroke-linejoin:round"></line><line x1="148.58" y1="132.13" x2="169.69" y2="132.13" style="fill:none;stroke:#263238;stroke-linejoin:round"></line><rect x="133.38" y="41.35" width="87.13" height="110.3" rx="9.1" style="fill:none;stroke:#263238;stroke-linejoin:round"></rect><line x1="148.11" y1="152.2" x2="148.11" y2="183.43" style="fill:none;stroke:#263238;stroke-linejoin:round"></line><circle cx="148.11" cy="184.86" r="1.43" style="fill:#263238;stroke:#263238;stroke-linecap:round;stroke-linejoin:round"></circle></g><g id="freepik--Clipboard--inject-90"><circle cx="168.85" cy="390.24" r="41.81" style="fill:#263238;stroke:#263238;stroke-linecap:round;stroke-linejoin:round"></circle><rect x="150.87" y="365.51" width="38.35" height="49.99" style="fill:#fff;stroke:#263238;stroke-linecap:round;stroke-linejoin:round"></rect><rect x="152.81" y="368.03" width="34.49" height="44.96" style="fill:#92DCE3;stroke:#263238;stroke-linecap:round;stroke-linejoin:round"></rect><path d="M175.07,363h-1.43v-1.77h-7.18V363H165a2.26,2.26,0,0,0-2.26,2.26v4.37h14.56v-4.37A2.26,2.26,0,0,0,175.07,363Z" style="fill:#92DCE3;stroke:#263238;stroke-linecap:round;stroke-linejoin:round"></path><rect x="155.5" y="378.54" width="6.1" height="6.1" style="fill:#fff;stroke:#263238;stroke-linecap:round;stroke-linejoin:round"></rect><rect x="155.5" y="389.38" width="6.1" height="6.1" style="fill:#fff;stroke:#263238;stroke-linecap:round;stroke-linejoin:round"></rect><rect x="155.5" y="400.22" width="6.1" height="6.1" style="fill:#fff;stroke:#263238;stroke-linecap:round;stroke-linejoin:round"></rect><line x1="164.53" y1="381.25" x2="183.28" y2="381.25" style="fill:none;stroke:#263238;stroke-linecap:round;stroke-linejoin:round"></line><line x1="164.53" y1="392.99" x2="183.28" y2="392.99" style="fill:none;stroke:#263238;stroke-linecap:round;stroke-linejoin:round"></line><line x1="164.53" y1="404.06" x2="183.28" y2="404.06" style="fill:none;stroke:#263238;stroke-linecap:round;stroke-linejoin:round"></line><polyline points="157.26 380.35 158.61 382.51 163.46 377.03" style="fill:none;stroke:#263238;stroke-linecap:round;stroke-linejoin:round"></polyline><polyline points="157.26 391.32 158.61 393.48 163.46 388" style="fill:none;stroke:#263238;stroke-linecap:round;stroke-linejoin:round"></polyline><polyline points="157.26 402.29 158.61 404.45 163.46 398.96" style="fill:none;stroke:#263238;stroke-linecap:round;stroke-linejoin:round"></polyline></g><g id="freepik--light-bulb--inject-90"><circle cx="52.81" cy="390.24" r="41.81" style="fill:#263238;stroke:#263238;stroke-linecap:round;stroke-linejoin:round"></circle><path d="M60,404.66a4,4,0,0,0,.9-2.68l.2-1.24c.6-3.47,2.18-8.82,4.36-11.59a15.4,15.4,0,1,0-24,.38c2.37,2.84,3.75,8.53,4.24,12.19l0,.26a4,4,0,0,0,.94,2.74" style="fill:#92DCE3;stroke:#263238;stroke-linecap:round;stroke-linejoin:round"></path><rect x="45.76" y="404.67" width="15.7" height="3.92" rx="1.4" style="fill:#fff;stroke:#263238;stroke-linecap:round;stroke-linejoin:round"></rect><rect x="45.76" y="409.7" width="15.7" height="3.92" rx="1.4" style="fill:#fff;stroke:#263238;stroke-linecap:round;stroke-linejoin:round"></rect><path d="M47.18,414.82c.76,2.32,3.35,4,6.43,4s5.66-1.7,6.43-4Z" style="fill:#fff;stroke:#263238;stroke-linecap:round;stroke-linejoin:round"></path><line x1="29.06" y1="380.38" x2="35.35" y2="380.38" style="fill:none;stroke:#fff;stroke-linecap:round;stroke-linejoin:round"></line><line x1="36.41" y1="363.65" x2="40.85" y2="368.09" style="fill:none;stroke:#fff;stroke-linecap:round;stroke-linejoin:round"></line><line x1="70.28" y1="380.38" x2="76.56" y2="380.38" style="fill:none;stroke:#fff;stroke-linecap:round;stroke-linejoin:round"></line><line x1="65.24" y1="368.72" x2="69.68" y2="364.28" style="fill:none;stroke:#fff;stroke-linecap:round;stroke-linejoin:round"></line><line x1="53.19" y1="356.76" x2="53.19" y2="362.54" style="fill:none;stroke:#fff;stroke-linecap:round;stroke-linejoin:round"></line></g></svg>
